<svg width="35" height="16" viewBox="0 0 35 16" fill="none" xmlns="http://www.w3.org/2000/svg">
<path d="M9.59746 2.31694L7.64157 0.35498L2.53779 5.44421L0 7.98882L2.53779 10.5617L7.64157 15.6509L9.59746 13.689L4.01176 7.98882L9.59746 2.31694Z" fill="#FF4040"/>
<path d="M17.1955 14.0014C16.1077 14.0014 15.1 13.7294 14.1723 13.1856C13.2685 12.6497 12.5487 11.9299 12.0128 11.0262C11.469 10.0984 11.197 9.09067 11.197 8.00296C11.197 6.91525 11.469 5.90751 12.0128 4.97976C12.5487 4.076 13.2685 3.35619 14.1723 2.82033C15.1 2.27647 16.1077 2.00454 17.1955 2.00454C18.2832 2.00454 19.2909 2.27647 20.2187 2.82033C21.1224 3.35619 21.8422 4.076 22.3781 4.97976C22.9219 5.90751 23.1939 6.91525 23.1939 8.00296C23.1939 9.09067 22.9219 10.0984 22.3781 11.0262C21.8422 11.9299 21.1224 12.6497 20.2187 13.1856C19.2909 13.7294 18.2832 14.0014 17.1955 14.0014ZM16.5956 8.48283V10.4023H17.7953V8.48283C18.1232 8.33887 18.3671 8.11093 18.5271 7.79901C18.6871 7.4791 18.731 7.14718 18.6591 6.80327C18.5871 6.45137 18.4111 6.16344 18.1312 5.9395C17.8593 5.71556 17.5474 5.60359 17.1955 5.60359C16.8435 5.60359 16.5276 5.71556 16.2477 5.9395C15.9758 6.16344 15.8038 6.45137 15.7318 6.80327C15.6599 7.14718 15.7038 7.4791 15.8638 7.79901C16.0238 8.11093 16.2677 8.33887 16.5956 8.48283Z" fill="#FF4040"/>
<path d="M26.5776 0.35498L24.5935 2.31694L30.192 7.98882L24.5935 13.689L26.5776 15.6509L31.6532 10.5617L34.191 7.98882L26.5776 0.35498Z" fill="#FF4040"/>
</svg>
