<svg width="22" height="22" viewBox="0 0 22 22" fill="none" xmlns="http://www.w3.org/2000/svg">
<path fill-rule="evenodd" clip-rule="evenodd" d="M22 2L20 2V16C20 16.3788 19.786 16.725 19.4472 16.8944L11.4472 20.8944L11 21.118L10.5528 20.8944L2.55279 16.8944C2.214 16.725 2 16.3788 2 16V2L0 2V0H2H4H18H20L22 1.9233e-06V2ZM4 2L18 2V15.382L11 18.882L4 15.382V2ZM14.6061 8.60609L15.2122 8L14 6.78782L13.3939 7.39391L9.71429 11.0735L8.60609 9.96534L8 9.35925L6.78782 10.5714L7.39391 11.1775L9.10819 12.8918L9.71429 13.4979L10.3204 12.8918L14.6061 8.60609Z" fill="white"/>
</svg>
