<svg width="20" height="23" viewBox="0 0 20 23" fill="none" xmlns="http://www.w3.org/2000/svg">
<path fill-rule="evenodd" clip-rule="evenodd" d="M12 6C12 8.20914 10.2091 10 8 10C5.79086 10 4 8.20914 4 6C4 3.79086 5.79086 2 8 2C10.2091 2 12 3.79086 12 6ZM14 6C14 9.31371 11.3137 12 8 12C4.68629 12 2 9.31371 2 6C2 2.68629 4.68629 0 8 0C11.3137 0 14 2.68629 14 6ZM2 20.5C2 20.6686 2.00758 20.8353 2.02242 21H0.0164023C0.00552468 20.8348 0 20.668 0 20.5C0 16.3579 3.35786 13 7.5 13C7.66801 13 7.83474 13.0055 8 13.0164V15.0224C7.83532 15.0076 7.66854 15 7.5 15C4.46243 15 2 17.4624 2 20.5Z" fill="#FF4040"/>
<path fill-rule="evenodd" clip-rule="evenodd" d="M13.3463 14.7046L14.1758 13.8751C14.9891 13.0618 16.3076 13.0618 17.1209 13.8751C17.9341 14.6883 17.9341 16.0068 17.1209 16.8201L16.291 17.65L17.705 19.0644L18.5351 18.2343C20.1294 16.64 20.1294 14.0551 18.5351 12.4609C16.9408 10.8666 14.3559 10.8666 12.7616 12.4609L11.9323 13.2902L13.3463 14.7046ZM11.7038 16.3471L10.2898 14.9327L9.46281 15.7597C7.86852 17.354 7.86852 19.9388 9.46281 21.5331C11.0571 23.1274 13.642 23.1274 15.2362 21.5331L16.0624 20.7069L14.6484 19.2925L13.822 20.1189C13.0088 20.9321 11.6903 20.9321 10.877 20.1189C10.0638 19.3057 10.0638 17.9871 10.877 17.1739L11.7038 16.3471Z" fill="#FF4040"/>
<path d="M11.5 18.5L12.5 19.5L16.5 15.5L15.5 14.5L11.5 18.5Z" fill="#FF4040"/>
</svg>
